<svg width="19" height="19" viewBox="0 0 19 19" fill="none" xmlns="http://www.w3.org/2000/svg">
<rect width="19" height="19" rx="9.5" fill="#F44040" fill-opacity="0.15"/>
<path d="M16.3542 4.1224C16.3839 4.04821 16.3912 3.96695 16.3751 3.88868C16.359 3.8104 16.3204 3.73856 16.2639 3.68206C16.2074 3.62556 16.1355 3.58688 16.0572 3.57083C15.979 3.55477 15.8977 3.56204 15.8235 3.59173L3.94726 8.3424C3.84267 8.38426 3.75166 8.45417 3.68424 8.54443C3.61682 8.63469 3.57561 8.7418 3.56515 8.85397C3.55468 8.96614 3.57537 9.07903 3.62492 9.1802C3.67448 9.28137 3.75099 9.36691 3.84603 9.4274L7.92398 12.0219L9.1739 13.9862C9.23293 14.0753 9.32457 14.1378 9.42913 14.16C9.53369 14.1823 9.64281 14.1627 9.73306 14.1054C9.8233 14.0481 9.88746 13.9577 9.91175 13.8535C9.93604 13.7494 9.91851 13.6399 9.86294 13.5486L8.73957 11.7836L14.8577 5.6654L13.3106 9.53354C13.2894 9.58352 13.2783 9.63725 13.2781 9.69157C13.2779 9.74589 13.2885 9.79971 13.3093 9.84987C13.3302 9.90004 13.3608 9.94554 13.3994 9.98371C13.4381 10.0219 13.484 10.0519 13.5344 10.0722C13.5848 10.0924 13.6388 10.1023 13.6931 10.1014C13.7474 10.1005 13.801 10.0888 13.8507 10.0669C13.9004 10.045 13.9453 10.0134 13.9826 9.974C14.02 9.93456 14.0491 9.88807 14.0683 9.83724L16.3542 4.1224ZM14.2805 5.0882L8.16237 11.2064L4.61998 8.95225L14.2805 5.0882Z" fill="#F44040"/>
<path d="M16.3838 13.7676C16.3838 14.5254 16.0827 15.2522 15.5469 15.7881C15.011 16.324 14.2842 16.625 13.5264 16.625C12.7685 16.625 12.0417 16.324 11.5059 15.7881C10.97 15.2522 10.6689 14.5254 10.6689 13.7676C10.6689 13.0097 10.97 12.2829 11.5059 11.7471C12.0417 11.2112 12.7685 10.9102 13.5264 10.9102C14.2842 10.9102 15.011 11.2112 15.5469 11.7471C16.0827 12.2829 16.3838 13.0097 16.3838 13.7676ZM11.8936 13.7676C11.8936 13.8758 11.9366 13.9797 12.0131 14.0562C12.0897 14.1328 12.1935 14.1758 12.3018 14.1758H14.751C14.8592 14.1758 14.9631 14.1328 15.0396 14.0562C15.1162 13.9797 15.1592 13.8758 15.1592 13.7676C15.1592 13.6593 15.1162 13.5555 15.0396 13.4789C14.9631 13.4024 14.8592 13.3594 14.751 13.3594H12.3018C12.1935 13.3594 12.0897 13.4024 12.0131 13.4789C11.9366 13.5555 11.8936 13.6593 11.8936 13.7676Z" fill="#F44040"/>
</svg>
