<svg width="20" height="20" viewBox="0 0 20 20" fill="none" xmlns="http://www.w3.org/2000/svg">
<g clip-path="url(#clip0_1508_27632)">
<path d="M19.6859 12.4347C18.3503 17.7919 12.9243 21.0522 7.5665 19.7162C2.21091 18.3807 -1.04937 12.9544 0.28679 7.5976C1.62178 2.23982 7.04774 -1.02071 12.4039 0.314859C17.7614 1.65043 21.0214 7.07733 19.6857 12.4348L19.6858 12.4347H19.6859Z" fill="#F7931A"/>
<path d="M14.4099 8.57577C14.6089 7.24498 13.5957 6.52964 12.2103 6.05243L12.6597 4.24977L11.5624 3.97634L11.1249 5.73154C10.8364 5.65959 10.5401 5.5918 10.2457 5.52459L10.6864 3.7578L9.58974 3.48438L9.14005 5.28645C8.90133 5.2321 8.66685 5.17838 8.43937 5.12178L8.44064 5.11611L6.92739 4.73822L6.63549 5.91024C6.63549 5.91024 7.44962 6.09686 7.43246 6.10835C7.87682 6.21926 7.95718 6.51341 7.94383 6.74657L7.43187 8.80022C7.46247 8.80799 7.50216 8.81923 7.54596 8.83683C7.50935 8.82774 7.47039 8.81782 7.42997 8.80814L6.71237 11.685C6.65807 11.82 6.52023 12.0226 6.20955 11.9457C6.22055 11.9616 5.41199 11.7467 5.41199 11.7467L4.86719 13.0027L6.29519 13.3587C6.56085 13.4254 6.82118 13.4951 7.07755 13.5606L6.62346 15.3839L7.71953 15.6574L8.16921 13.8534C8.46865 13.9347 8.75923 14.0097 9.04371 14.0803L8.59554 15.8758L9.69292 16.1492L10.147 14.3293C12.0181 14.6835 13.4251 14.5407 14.0174 12.8482C14.4946 11.4855 13.9936 10.6996 13.0092 10.187C13.7262 10.0217 14.2662 9.55007 14.4102 8.57591L14.4099 8.57567L14.4099 8.57577ZM11.9027 12.0914C11.5636 13.4541 9.26929 12.7175 8.52544 12.5328L9.12803 10.1172C9.87182 10.3029 12.2571 10.6703 11.9027 12.0914H11.9027ZM12.2421 8.55602C11.9327 9.7955 10.0231 9.16579 9.4037 9.01138L9.95003 6.82057C10.5695 6.97498 12.5643 7.26317 12.2422 8.55602H12.2421Z" fill="white"/>
</g>
<defs>
<clipPath id="clip0_1508_27632">
<rect width="20" height="20" fill="white"/>
</clipPath>
</defs>
</svg>
