<svg width="20" height="20" viewBox="0 0 20 20" fill="none" xmlns="http://www.w3.org/2000/svg">
<path d="M10.03 0.107682V0.117534C10.0398 0.166795 10.0398 0.225908 10.0398 0.285022V7.38847C10.03 7.42788 10.0004 7.43773 9.97088 7.45744C9.76398 7.55596 9.56694 7.64463 9.36004 7.7333C9.07432 7.86138 8.77876 7.99931 8.49304 8.12739L7.45856 8.60029C7.17285 8.72837 6.88713 8.85645 6.61127 8.98453C6.27629 9.14216 5.93147 9.28995 5.59649 9.44758C5.31078 9.57566 5.02506 9.71359 4.7295 9.84167C4.49304 9.95005 4.25659 10.0486 4.02999 10.1569C4.01029 10.1668 3.99058 10.1766 3.97088 10.1766C3.96102 10.1766 3.96102 10.1766 3.95117 10.1668L4.21718 9.72344C4.7295 8.87615 5.23196 8.03872 5.74428 7.19143C6.28615 6.28502 6.83787 5.37862 7.37974 4.47221C7.88221 3.63478 8.39452 2.79734 8.89698 1.9599C9.26152 1.34906 9.6359 0.738224 10.0004 0.127386C10.0103 0.107682 10.0201 0.0978294 10.0201 0.078125H10.03C10.0201 0.0879772 10.03 0.0978294 10.03 0.107682Z" fill="#8A92B2"/>
<path d="M16.0787 10.1677L16.0886 10.1776L14.6403 11.0347L10.0886 13.7244C10.0689 13.7342 10.0492 13.7441 10.0393 13.7539C10.0098 13.7539 10.0098 13.7244 10.0098 13.7145V13.6259V7.53719C10.0098 7.50764 10.0098 7.46823 10.0196 7.43867C10.0295 7.39926 10.059 7.40912 10.0886 7.41897C10.2167 7.47808 10.3546 7.53719 10.4827 7.59631C10.8669 7.77365 11.2511 7.95099 11.6354 8.11848C11.9704 8.26626 12.2955 8.42389 12.6305 8.57168C12.9654 8.71946 13.3004 8.8771 13.6354 9.02488C13.9211 9.15296 14.2167 9.29089 14.5024 9.41897C14.7881 9.54705 15.0837 9.68498 15.3694 9.81306C15.596 9.91158 15.8226 10.02 16.0492 10.1185C16.0492 10.148 16.059 10.1579 16.0787 10.1677Z" fill="#454A75"/>
<path d="M10.029 19.8718C10.029 19.8816 10.0192 19.8915 10.0192 19.9013H10.0093C10.0093 19.8816 9.9896 19.8718 9.97975 19.8521C9.36891 18.9949 8.75808 18.1279 8.14724 17.2708C7.52655 16.3939 6.89601 15.5072 6.27532 14.6304C5.67433 13.7831 5.0635 12.926 4.46251 12.0787C4.30488 11.8521 4.14724 11.6353 3.9896 11.4087C3.97975 11.389 3.9699 11.3792 3.9502 11.3496C3.97975 11.3496 3.99946 11.3693 4.00931 11.3792C4.86645 11.8816 5.71374 12.3841 6.57088 12.8866C7.55611 13.4678 8.53148 14.0491 9.5167 14.6304L10.0192 14.926C10.0389 14.9457 10.0389 14.9654 10.0389 14.9851V19.7338C10.0389 19.7831 10.0389 19.8324 10.029 19.8718Z" fill="#8A92B2"/>
<path d="M3.94043 10.1865V10.1767C4.2557 10.0387 4.56112 9.89096 4.87639 9.75303C5.28033 9.56584 5.68427 9.3885 6.08821 9.20131C6.39363 9.06338 6.7089 8.91559 7.01432 8.77766C7.46752 8.57076 7.91087 8.37372 8.36407 8.16682C8.66949 8.02889 8.97491 7.89096 9.29018 7.74318C9.50693 7.64466 9.73353 7.54613 9.95028 7.44761C9.96999 7.43776 9.99954 7.42791 10.0094 7.4082C10.0192 7.4082 10.0192 7.41806 10.0094 7.42791V13.6841C10.0094 13.7136 9.99954 13.7432 10.0192 13.7629C9.99954 13.7924 9.97984 13.7629 9.96999 13.753C9.88132 13.7038 9.79265 13.6545 9.70398 13.5954C7.8025 12.4722 5.89117 11.3392 3.98969 10.2161C3.97984 10.2062 3.96013 10.1964 3.94043 10.1865Z" fill="#62688F"/>
<path d="M16.0589 11.3496H16.0688C16.0688 11.3693 16.0491 11.389 16.0392 11.4087C14.2264 13.9604 12.4136 16.522 10.6008 19.0737C10.4136 19.3398 10.2166 19.6058 10.0294 19.8718C10.0195 19.8619 10.0195 19.8521 10.0195 19.8422V19.7831V15.0048V14.9161C10.4333 14.6698 10.8373 14.4334 11.2511 14.187C12.8471 13.2412 14.4432 12.3053 16.0294 11.3595C16.0392 11.3693 16.0491 11.3595 16.0589 11.3496Z" fill="#62688F"/>
<path d="M10.0197 7.42753V7.40783V7.34871V0.196005C10.0197 0.166449 10.0099 0.146744 10.0296 0.117188C12.0296 3.43738 14.0296 6.74773 16.0197 10.0679C16.0394 10.0975 16.069 10.1369 16.0788 10.1763C15.9409 10.127 15.8128 10.0581 15.6847 9.99896C15.5271 9.93 15.3596 9.85118 15.202 9.78221C15.1034 9.73295 14.9951 9.69354 14.8966 9.64428C14.7291 9.56546 14.5616 9.4965 14.3941 9.41768C14.2956 9.37827 14.197 9.32901 14.0985 9.27975L13.4483 8.98418C13.3399 8.93492 13.2315 8.88566 13.1133 8.8364L12.6404 8.6295C12.5419 8.59009 12.4434 8.54083 12.3448 8.49157L11.6946 8.19601C11.5862 8.14674 11.4778 8.09748 11.3596 8.04822L10.8867 7.84133C10.7783 7.79206 10.6798 7.7428 10.5714 7.69354C10.3842 7.60487 10.197 7.5162 10 7.43739C10.0296 7.42753 10.0197 7.42753 10.0197 7.42753Z" fill="#62688F"/>
</svg>
