<svg width="16" height="17" viewBox="0 0 16 17" fill="none" xmlns="http://www.w3.org/2000/svg">
<path d="M9.02054 2.27179C9.48084 1.82234 10.0997 1.57242 10.7431 1.57621C11.3864 1.58001 12.0023 1.8372 12.4573 2.29205C12.9123 2.74689 13.1696 3.36273 13.1736 4.00606C13.1776 4.64938 12.9279 5.26836 12.4785 5.72879L12.2065 5.99979L12.2925 6.08579C12.6675 6.46085 12.8781 6.96946 12.8781 7.49979C12.8781 8.03012 12.6675 8.53874 12.2925 8.91379L10.8525 10.3538C10.7582 10.4449 10.6319 10.4953 10.5008 10.4941C10.3697 10.493 10.2443 10.4404 10.1516 10.3477C10.0589 10.255 10.0063 10.1296 10.0052 9.99849C10.0041 9.86739 10.0545 9.74109 10.1455 9.64679L11.5855 8.20679C11.773 8.01926 11.8783 7.76496 11.8783 7.49979C11.8783 7.23463 11.773 6.98032 11.5855 6.79279L11.4995 6.70679L5.85354 12.3538C5.7892 12.4178 5.70865 12.4631 5.62054 12.4848L1.62054 13.4848C1.53368 13.5064 1.44262 13.5042 1.35686 13.4786C1.27111 13.453 1.1938 13.4048 1.13301 13.3391C1.07223 13.2734 1.03019 13.1926 1.01128 13.1052C0.992377 13.0177 0.997299 12.9267 1.02554 12.8418L2.27554 9.09179C2.29991 9.01838 2.34099 8.95163 2.39554 8.89679L9.02054 2.27179ZM11.7705 2.97879C11.4996 2.70827 11.1324 2.55633 10.7495 2.55633C10.3667 2.55633 9.99946 2.70827 9.72854 2.97879L3.18654 9.51979L2.26154 12.2938L5.24354 11.5488L11.7705 5.02179C12.0414 4.75082 12.1935 4.3834 12.1935 4.00029C12.1935 3.61719 12.0414 3.24976 11.7705 2.97879ZM4.96654 15.4998C3.73154 15.4998 2.75854 14.9338 2.11154 14.3928L3.39554 14.0728C3.87334 14.348 4.41415 14.4951 4.96554 14.4998C5.37154 14.4998 5.78954 14.3358 6.23554 14.0428C6.68254 13.7498 7.11354 13.3558 7.54954 12.9478L7.66254 12.8408C8.04754 12.4798 8.44654 12.1038 8.82854 11.8448C9.23654 11.5668 9.77854 11.3148 10.3455 11.5338C10.7215 11.6778 10.9655 11.9438 11.1365 12.2698C11.2975 12.5758 11.4085 12.9578 11.5165 13.3748C11.5665 13.5648 11.6495 13.7488 11.7465 13.8728C11.7777 13.9165 11.8163 13.9544 11.8605 13.9848C11.8855 13.9998 11.8965 13.9998 11.8995 13.9998C12.0215 13.9998 12.2305 13.9178 12.5295 13.7138C12.7145 13.5878 12.8735 13.4618 13.0315 13.3348C13.1295 13.2568 13.2285 13.1778 13.3335 13.0998C13.6125 12.8908 13.8535 12.7508 14.0305 12.6618C14.1211 12.6159 14.2139 12.5745 14.3085 12.5378L14.3285 12.5298L14.3355 12.5278L14.3385 12.5268H14.3395L14.4995 12.9998L14.3405 12.5258C14.4656 12.4851 14.6017 12.4953 14.7193 12.5543C14.8369 12.6132 14.9265 12.7162 14.9688 12.8407C15.011 12.9653 15.0024 13.1015 14.9449 13.2198C14.8874 13.3382 14.7856 13.429 14.6615 13.4728L14.6575 13.4748C14.598 13.4988 14.5396 13.5255 14.4825 13.5548C14.3525 13.6188 14.1615 13.7288 13.9325 13.9008C13.8735 13.9438 13.7975 14.0048 13.7095 14.0748C13.5285 14.2178 13.3005 14.3988 13.0915 14.5408C12.7815 14.7528 12.3505 15.0008 11.8995 15.0008C11.4635 15.0008 11.1485 14.7358 10.9535 14.4838C10.7636 14.2271 10.626 13.9356 10.5485 13.6258C10.4385 13.2028 10.3525 12.9258 10.2525 12.7358C10.1625 12.5678 10.0825 12.5038 9.98654 12.4658C9.90454 12.4358 9.74154 12.4328 9.39154 12.6718C9.07854 12.8838 8.73654 13.2048 8.33354 13.5838L8.23354 13.6768C7.80254 14.0818 7.31354 14.5318 6.78454 14.8788C6.25454 15.2268 5.64454 15.4998 4.96654 15.4998Z" fill="blue"/>
</svg>
