<svg width="20" height="19" viewBox="0 0 20 19" fill="none" xmlns="http://www.w3.org/2000/svg">
<rect x="0.5" width="19" height="19" rx="9.5" fill="#1BA27A" fill-opacity="0.13"/>
<path d="M11.6502 4.17601C11.6636 4.1592 11.6802 4.14528 11.6992 4.13511C11.7181 4.12493 11.7388 4.11871 11.7602 4.11681C11.7816 4.11492 11.8032 4.11739 11.8236 4.12408C11.844 4.13077 11.8628 4.14154 11.8789 4.15574L12.4622 4.67001L10.6261 6.96588H11.8428L13.1766 5.29892L14.2229 6.2217C14.2538 6.24904 14.2729 6.28738 14.2759 6.32856C14.279 6.36973 14.2659 6.41047 14.2394 6.44211L13.8023 6.96588H15.0336C15.1861 6.74261 15.2517 6.4713 15.2181 6.20301C15.1845 5.93472 15.054 5.68796 14.8512 5.50919L12.5078 3.4426C12.3947 3.34304 12.2626 3.26757 12.1194 3.22079C11.9762 3.17402 11.825 3.15693 11.675 3.17056C11.5249 3.1842 11.3793 3.22827 11.2469 3.30008C11.1144 3.3719 10.9981 3.46996 10.9048 3.58826L8.24286 6.96588H9.45255L11.6502 4.17601ZM12.8498 11.3993C12.7238 11.3993 12.603 11.4493 12.5139 11.5384C12.4248 11.6275 12.3748 11.7483 12.3748 11.8743C12.3748 12.0003 12.4248 12.1211 12.5139 12.2102C12.603 12.2992 12.7238 12.3493 12.8498 12.3493H14.1165C14.2425 12.3493 14.3633 12.2992 14.4524 12.2102C14.5414 12.1211 14.5915 12.0003 14.5915 11.8743C14.5915 11.7483 14.5414 11.6275 14.4524 11.5384C14.3633 11.4493 14.2425 11.3993 14.1165 11.3993H12.8498ZM5.40802 7.12422C5.40802 6.99824 5.45807 6.87742 5.54715 6.78834C5.63623 6.69925 5.75705 6.64921 5.88303 6.64921H7.86413L8.61907 5.6992H5.88303C5.50509 5.6992 5.14263 5.84933 4.87539 6.11657C4.60814 6.38382 4.45801 6.74628 4.45801 7.12422V13.7743C4.45801 14.3202 4.67487 14.8438 5.06089 15.2298C5.44691 15.6158 5.97046 15.8327 6.51637 15.8327H14.1165C14.6624 15.8327 15.186 15.6158 15.572 15.2298C15.958 14.8438 16.1749 14.3202 16.1749 13.7743V9.65759C16.1749 9.11168 15.958 8.58812 15.572 8.2021C15.186 7.81609 14.6624 7.59922 14.1165 7.59922H5.88303C5.75705 7.59922 5.63623 7.54918 5.54715 7.4601C5.45807 7.37102 5.40802 7.2502 5.40802 7.12422ZM5.40802 13.7743V8.46817C5.55686 8.52074 5.71646 8.54924 5.88303 8.54924H14.1165C14.7283 8.54924 15.2248 9.04578 15.2248 9.65759V13.7743C15.2248 14.0683 15.1081 14.3502 14.9002 14.558C14.6924 14.7659 14.4104 14.8827 14.1165 14.8827H6.51637C6.22242 14.8827 5.94051 14.7659 5.73265 14.558C5.52479 14.3502 5.40802 14.0683 5.40802 13.7743Z" fill="#1BA27A"/>
</svg>
