<svg width="12" height="12" viewBox="0 0 12 12" fill="none" xmlns="http://www.w3.org/2000/svg">
<path d="M8.82464 3.17494C8.40556 2.75208 7.89683 2.42875 7.33604 2.22884C6.77525 2.02893 6.17672 1.95754 5.58464 2.01994C3.74964 2.20494 2.23964 3.69495 2.03464 5.52995C1.75964 7.95495 3.63464 9.99994 5.99964 9.99994C6.7547 9.99995 7.49425 9.78571 8.13239 9.38211C8.77053 8.97852 9.28105 8.40214 9.60464 7.71994C9.76464 7.38494 9.52464 6.99995 9.15464 6.99995C8.96964 6.99995 8.79464 7.09995 8.71464 7.26495C8.42435 7.88946 7.92782 8.39494 7.3086 8.69635C6.68938 8.99777 5.98525 9.07672 5.31464 8.91995C4.20464 8.67495 3.30964 7.76995 3.07464 6.65995C2.97586 6.22108 2.977 5.76561 3.07799 5.32724C3.17898 4.88888 3.37723 4.47882 3.65807 4.12741C3.93891 3.77599 4.29517 3.49221 4.70048 3.29705C5.10579 3.1019 5.54979 3.00036 5.99964 2.99994C6.82964 2.99994 7.56964 3.34494 8.10964 3.88995L7.35464 4.64494C7.03964 4.95994 7.25964 5.49994 7.70464 5.49994H9.49964C9.77464 5.49994 9.99964 5.27495 9.99964 4.99994V3.20494C9.99964 2.75994 9.45964 2.53494 9.14464 2.84994L8.82464 3.17494Z" fill="#1320DF"/>
</svg>
