<svg width="19" height="19" viewBox="0 0 19 19" fill="none" xmlns="http://www.w3.org/2000/svg">
<rect width="19" height="19" rx="9.5" fill="#22E0BB" fill-opacity="0.15"/>
<path d="M8.01562 2.375C7.30777 2.3775 6.62962 2.65981 6.12909 3.16034C5.62856 3.66087 5.34625 4.33902 5.34375 5.04688C5.34375 5.52187 5.47853 5.96303 5.69644 6.346C4.62709 6.97181 3.78991 7.86006 3.33984 8.90625H3.26562C3.22639 8.90714 3.18739 8.90007 3.15097 8.88547C3.11455 8.87087 3.08146 8.84903 3.05371 8.82129C3.02597 8.79354 3.00413 8.76045 2.98953 8.72403C2.97493 8.68761 2.96786 8.64861 2.96875 8.60938C2.96875 8.50488 3.02219 8.42175 3.09878 8.36831L2.41181 7.40347C2.21727 7.53875 2.05833 7.71906 1.94853 7.92904C1.83874 8.13901 1.78135 8.37243 1.78125 8.60938C1.78125 9.33969 2.32631 9.93819 3.02456 10.0569C2.99428 10.2648 2.96875 10.472 2.96875 10.6875C2.96875 12.1671 3.75487 13.4496 4.89844 14.3984C4.75475 14.9922 4.82659 15.6251 5.28794 16.0871C5.62854 16.4247 6.08874 16.6142 6.56836 16.6142C7.04798 16.6142 7.50818 16.4247 7.84878 16.0871L8.07144 15.8644C8.53516 15.9499 9.00125 16.0312 9.5 16.0312C9.99875 16.0312 10.4648 15.9499 10.9286 15.8644L11.1512 16.0871C11.4918 16.4247 11.952 16.6142 12.4316 16.6142C12.9113 16.6142 13.3715 16.4247 13.7121 16.0871C14.1639 15.6346 14.2316 15.0201 14.1016 14.4353C14.5777 14.0486 14.9854 13.5845 15.3075 13.0625H16.625V8.3125H15.2707C15.0551 7.96255 14.7996 7.63877 14.5095 7.34766L14.8438 5.51059V4.75H14.25C14.25 4.75 12.8238 4.77375 11.6149 5.67803C11.2975 5.58647 10.9755 5.51195 10.6501 5.45478C10.6738 5.32297 10.6875 5.18581 10.6875 5.04688C10.6875 3.57853 9.48397 2.375 8.01562 2.375ZM8.01562 3.5625C8.84094 3.5625 9.5 4.22156 9.5 5.04688C9.5 5.149 9.48159 5.24638 9.46259 5.34375C8.50488 5.3485 7.60059 5.53375 6.77291 5.84487C6.61525 5.60861 6.53116 5.33091 6.53125 5.04688C6.53125 4.22156 7.19031 3.5625 8.01562 3.5625ZM13.5078 6.04912C13.5173 6.04675 13.5173 6.05091 13.5262 6.04912L13.3036 7.40288L13.2483 7.71875L13.5078 7.94141C13.9043 8.28475 14.2317 8.70046 14.4727 9.16631L14.6395 9.5H15.4375V11.875H14.6395L14.4727 12.2093C14.1829 12.7817 13.7257 13.2852 13.1367 13.7115L12.7098 14.0273L12.9699 14.5101C13.1112 14.7487 13.0857 15.0433 12.8767 15.2522C12.8203 15.311 12.7526 15.3578 12.6777 15.3897C12.6028 15.4217 12.5223 15.4381 12.4408 15.4381C12.3594 15.4381 12.2788 15.4217 12.2039 15.3897C12.1291 15.3578 12.0614 15.311 12.005 15.2522L11.5781 14.8247L11.3371 14.6027L11.0212 14.6769C10.5391 14.7879 10.0267 14.8438 9.5 14.8438C8.98808 14.8456 8.47758 14.7896 7.97822 14.6769L7.66353 14.6027L7.42188 14.8253L6.99497 15.2517C6.9386 15.3105 6.8709 15.3574 6.79596 15.3893C6.721 15.4213 6.64035 15.4378 6.55886 15.4378C6.47737 15.4378 6.39671 15.4213 6.32176 15.3893C6.24681 15.3574 6.17912 15.3105 6.12275 15.2517C6.02503 15.157 5.96257 15.0319 5.94573 14.8969C5.92888 14.7619 5.95866 14.6252 6.03013 14.5095L6.29019 14.0273L5.86328 13.7121C4.78919 12.9319 4.15625 11.8679 4.15625 10.6875C4.15625 8.46569 6.47781 6.53125 9.5 6.53125C10.2303 6.53125 10.9262 6.6405 11.5597 6.84653L11.875 6.95816L12.1351 6.7355C12.559 6.35728 13.0833 6.15362 13.5078 6.04912ZM13.0625 9.5C12.7359 9.5 12.4688 9.76719 12.4688 10.0938C12.4688 10.4203 12.7359 10.6875 13.0625 10.6875C13.3891 10.6875 13.6562 10.4203 13.6562 10.0938C13.6562 9.76719 13.3891 9.5 13.0625 9.5Z" fill="#22E0BB"/>
</svg>
