<svg width="24" height="24" viewBox="0 0 24 24" fill="none" xmlns="http://www.w3.org/2000/svg">
<g clip-path="url(#clip0_1508_21180)">
<path d="M3.33989 7.00086C6.10089 2.21786 12.2169 0.580864 16.9999 3.34086C18.8949 4.4348 20.3789 6.11993 21.2246 8.138C22.0703 10.1561 22.2309 12.3958 21.6819 14.5139C21.4649 15.3459 20.4599 15.5879 19.8739 15.0449L19.7899 14.9579L17.5379 12.3709C16.8529 11.5839 17.5459 10.3989 18.5349 10.5609L18.6449 10.5839L19.9269 10.9189C19.6806 9.11852 18.8287 7.45567 17.5114 6.20398C16.1941 4.95229 14.49 4.18634 12.6794 4.03219C10.8688 3.87804 9.05972 4.34487 7.54981 5.35586C6.03989 6.36684 4.91914 7.86174 4.372 9.59453C3.82486 11.3273 3.88393 13.1948 4.53949 14.8895C5.19505 16.5842 6.40804 18.0053 7.97882 18.9189C9.54961 19.8324 11.3846 20.184 13.1818 19.9157C14.979 19.6474 16.6314 18.7753 17.8669 17.4429C17.9555 17.3443 18.0628 17.2644 18.1826 17.2076C18.3023 17.1509 18.4322 17.1186 18.5646 17.1125C18.6969 17.1064 18.8292 17.1266 18.9537 17.1721C19.0782 17.2176 19.1924 17.2873 19.2896 17.3773C19.3869 17.4673 19.4653 17.5758 19.5203 17.6963C19.5754 17.8169 19.6058 17.9472 19.6101 18.0796C19.6143 18.2121 19.5921 18.3441 19.5449 18.4679C19.4976 18.5917 19.4263 18.7049 19.3349 18.8009C16.2329 22.1519 11.1229 23.0409 6.99989 20.6609C2.21689 17.9009 0.579887 11.7839 3.33989 7.00086ZM11.9999 6.00086C12.2448 6.0009 12.4812 6.09082 12.6643 6.25358C12.8473 6.41634 12.9642 6.64061 12.9929 6.88386L12.9999 7.00086V11.5869L15.7069 14.2939C15.8862 14.4738 15.9904 14.7153 15.9981 14.9692C16.0059 15.2232 15.9167 15.4706 15.7486 15.6611C15.5806 15.8517 15.3463 15.9712 15.0934 15.9953C14.8405 16.0194 14.5879 15.9463 14.3869 15.7909L14.2929 15.7079L11.2929 12.7079C11.1375 12.5523 11.0377 12.3499 11.0089 12.1319L10.9999 12.0009V7.00086C10.9999 6.73565 11.1052 6.48129 11.2928 6.29376C11.4803 6.10622 11.7347 6.00086 11.9999 6.00086Z" fill="#3641EB"/>
</g>
<defs>
<clipPath id="clip0_1508_21180">
<rect width="24" height="24" fill="white"/>
</clipPath>
</defs>
</svg>
