<svg width="19" height="19" viewBox="0 0 19 19" fill="none" xmlns="http://www.w3.org/2000/svg">
<g clip-path="url(#clip0_1508_27571)">
<rect width="19" height="19" rx="9.5" fill="#F7931A" fill-opacity="0.15"/>
<path d="M2.37504 9.95442C2.36788 9.04712 3.33962 8.53154 4.07863 8.94759L4.15955 8.99771L6.07725 10.2896C7.09697 10.977 6.46251 12.5417 5.29026 12.377L5.19144 12.3591L5.1141 12.3419C5.55444 13.2015 6.21834 13.9266 7.03593 14.4408C7.85353 14.955 8.7946 15.2393 9.76013 15.2638C10.7257 15.2884 11.68 15.0523 12.5226 14.5803C13.3653 14.1083 14.0652 13.4179 14.5487 12.5818C14.6927 12.3385 14.9268 12.1617 15.2003 12.0899C15.4737 12.0181 15.7645 12.057 16.0094 12.1982C16.2544 12.3394 16.4338 12.5715 16.5088 12.8441C16.5837 13.1167 16.5481 13.4079 16.4098 13.6545C14.7506 16.5325 11.3119 18.0599 7.94912 17.1583C6.35993 16.7326 4.9542 15.7975 3.94739 14.4963C2.94058 13.1951 2.38824 11.5996 2.37504 9.95442ZM9.89547 5.59913C10.0854 5.59913 10.2675 5.67457 10.4018 5.80887C10.5361 5.94316 10.6116 6.1253 10.6116 6.31522V7.03132H11.3277C11.6601 7.03132 11.986 7.1239 12.2688 7.29869C12.5517 7.47348 12.7802 7.72357 12.9289 8.02094C13.0776 8.31831 13.1405 8.6512 13.1107 8.98233C13.0808 9.31345 12.9593 9.62972 12.7599 9.8957C12.9593 10.1617 13.0808 10.4779 13.1107 10.8091C13.1405 11.1402 13.0776 11.4731 12.9289 11.7705C12.7802 12.0678 12.5517 12.3179 12.2688 12.4927C11.986 12.6675 11.6601 12.7601 11.3277 12.7601H10.6116V13.4762C10.6116 13.6661 10.5361 13.8482 10.4018 13.9825C10.2675 14.1168 10.0854 14.1923 9.89547 14.1923C9.70555 14.1923 9.52341 14.1168 9.38912 13.9825C9.25482 13.8482 9.17938 13.6661 9.17938 13.4762V12.7601H7.81879C7.60988 12.7601 7.40953 12.6771 7.2618 12.5294C7.11408 12.3816 7.03109 12.1813 7.03109 11.9724V7.81902C7.03109 7.61011 7.11408 7.40975 7.2618 7.26203C7.40953 7.11431 7.60988 7.03132 7.81879 7.03132H9.17938V6.31522C9.17938 6.1253 9.25482 5.94316 9.38912 5.80887C9.52341 5.67457 9.70555 5.59913 9.89547 5.59913ZM11.3277 10.6118H8.46328V11.3279H11.3277C11.4226 11.3279 11.5137 11.2902 11.5808 11.223C11.648 11.1559 11.6857 11.0648 11.6857 10.9698C11.6857 10.8749 11.648 10.7838 11.5808 10.7167C11.5137 10.6495 11.4226 10.6118 11.3277 10.6118ZM3.38187 6.13691C5.04035 3.25893 8.47904 1.73221 11.8418 2.63306C13.431 3.05881 14.8367 3.99394 15.8436 5.29514C16.8504 6.59634 17.4027 8.1918 17.4159 9.83698C17.4231 10.7443 16.4513 11.2599 15.7123 10.8445L15.6314 10.7944L13.7137 9.50185C12.694 8.81439 13.3284 7.24973 14.5007 7.41514L14.5995 7.43305L14.6776 7.44952C14.2371 6.5901 13.5732 5.86526 12.7556 5.35125C11.938 4.83724 10.9971 4.55305 10.0317 4.52858C9.06625 4.5041 8.11209 4.74024 7.26953 5.21217C6.42698 5.68409 5.72717 6.37435 5.24372 7.21034C5.10147 7.45724 4.86696 7.63751 4.59179 7.71151C4.31663 7.7855 4.02333 7.74716 3.77644 7.60491C3.52954 7.46266 3.34927 7.22816 3.27527 6.95299C3.20127 6.67782 3.23962 6.38381 3.38187 6.13691ZM11.3277 8.46351H8.46328V9.1796H11.3277C11.4226 9.1796 11.5137 9.14188 11.5808 9.07473C11.648 9.00759 11.6857 8.91652 11.6857 8.82156C11.6857 8.72659 11.648 8.63552 11.5808 8.56838C11.5137 8.50123 11.4226 8.46351 11.3277 8.46351Z" fill="#F7931A"/>
</g>
<defs>
<clipPath id="clip0_1508_27571">
<rect width="19" height="19" rx="9.5" fill="white"/>
</clipPath>
</defs>
</svg>
