<svg width="16" height="15" viewBox="0 0 16 15" fill="none" xmlns="http://www.w3.org/2000/svg">
<path fill-rule="evenodd" clip-rule="evenodd" d="M8.00033 0.166016C3.95033 0.166016 0.666992 3.44935 0.666992 7.49935C0.666992 11.5494 3.95033 14.8327 8.00033 14.8327C12.0503 14.8327 15.3337 11.5494 15.3337 7.49935C15.3337 3.44935 12.0503 0.166016 8.00033 0.166016ZM8.66699 10.166C8.66699 10.3428 8.59676 10.5124 8.47173 10.6374C8.34671 10.7624 8.17714 10.8327 8.00033 10.8327C7.82352 10.8327 7.65395 10.7624 7.52892 10.6374C7.4039 10.5124 7.33366 10.3428 7.33366 10.166V8.16602H5.33366C5.15685 8.16602 4.98728 8.09578 4.86226 7.97076C4.73723 7.84573 4.66699 7.67616 4.66699 7.49935C4.66699 7.32254 4.73723 7.15297 4.86226 7.02795C4.98728 6.90292 5.15685 6.83268 5.33366 6.83268H7.33366V4.83268C7.33366 4.65587 7.4039 4.4863 7.52892 4.36128C7.65395 4.23625 7.82352 4.16602 8.00033 4.16602C8.17714 4.16602 8.34671 4.23625 8.47173 4.36128C8.59676 4.4863 8.66699 4.65587 8.66699 4.83268V6.83268H10.667C10.8438 6.83268 11.0134 6.90292 11.1384 7.02795C11.2634 7.15297 11.3337 7.32254 11.3337 7.49935C11.3337 7.67616 11.2634 7.84573 11.1384 7.97076C11.0134 8.09578 10.8438 8.16602 10.667 8.16602H8.66699V10.166Z" fill="#1320DF"/>
</svg>
