<svg width="19" height="19" viewBox="0 0 19 19" fill="none" xmlns="http://www.w3.org/2000/svg">
<rect width="19" height="19" rx="9.5" fill="#62688F" fill-opacity="0.13"/>
<path d="M9.72215 15.4443C6.03467 15.4443 3 12.4096 3 8.72215C3 5.03467 6.03467 2 9.72215 2C13.4096 2 16.4443 5.03467 16.4443 8.72215C16.4436 10.2005 15.952 11.6368 15.0467 12.8056L16.2031 13.962C16.3675 14.1263 16.46 14.3495 16.46 14.5823C16.46 15.0641 16.0641 15.46 15.5823 15.46C15.3495 15.46 15.1263 15.3675 14.962 15.2031L13.8056 14.0467C12.6368 14.952 11.2005 15.4436 9.72215 15.4443ZM13.4595 12.0787C14.292 11.1588 14.7536 9.9628 14.7551 8.72215C14.7551 5.96117 12.4831 3.68923 9.72215 3.68923C8.20678 3.68923 6.8389 4.37345 5.91297 5.44744H8.86015V6.82597H5.06443C4.92702 7.15877 4.82622 7.50554 4.76382 7.86015H8.17088V9.23924H4.71615C4.76494 9.71314 4.88272 10.1775 5.06443 10.6183H7.48162V11.9969H5.91297C6.8389 13.0709 8.20678 13.7551 9.72215 13.7551C11.0065 13.7551 12.1853 13.2632 13.0787 12.4595C13.1634 12.2964 13.2964 12.1634 13.4595 12.0787ZM8.17088 11.9969H12.3076V10.6183H8.17088V11.9969ZM11.6183 9.23924H14.3759V7.86015H11.6183V9.23924ZM8.86015 9.23924H10.5841V7.86015H8.86015V9.23924ZM9.89432 6.82597H12.6525V5.44744H9.89432V6.82597Z" fill="#62688F"/>
</svg>
