<svg width="16" height="16" viewBox="0 0 16 16" fill="none" xmlns="http://www.w3.org/2000/svg">
<path d="M5.33366 3.33398H4.00033C3.6467 3.33398 3.30756 3.47446 3.05752 3.72451C2.80747 3.97456 2.66699 4.3137 2.66699 4.66732V12.6673C2.66699 13.0209 2.80747 13.3601 3.05752 13.6101C3.30756 13.8602 3.6467 14.0006 4.00033 14.0006H7.79833M12.0003 9.33398V12.0006H14.667M12.0003 7.33398V4.66732C12.0003 4.3137 11.8598 3.97456 11.6098 3.72451C11.3598 3.47446 11.0206 3.33398 10.667 3.33398H9.33366" stroke="#3641EB" stroke-linecap="round" stroke-linejoin="round"/>
<path d="M8.00065 2H6.66732C5.93094 2 5.33398 2.59695 5.33398 3.33333C5.33398 4.06971 5.93094 4.66667 6.66732 4.66667H8.00065C8.73703 4.66667 9.33398 4.06971 9.33398 3.33333C9.33398 2.59695 8.73703 2 8.00065 2Z" stroke="#3641EB" stroke-linecap="round" stroke-linejoin="round"/>
<path d="M12.0007 14.6673C13.4734 14.6673 14.6673 13.4734 14.6673 12.0007C14.6673 10.5279 13.4734 9.33398 12.0007 9.33398C10.5279 9.33398 9.33398 10.5279 9.33398 12.0007C9.33398 13.4734 10.5279 14.6673 12.0007 14.6673Z" stroke="#3641EB" stroke-linecap="round" stroke-linejoin="round"/>
<path d="M5.33398 7.33398H8.00065M5.33398 10.0007H7.33398" stroke="#3641EB" stroke-linecap="round" stroke-linejoin="round"/>
</svg>
